<svg height='100px' width='100px'  fill="#000000" xmlns="http://www.w3.org/2000/svg" xmlns:xlink="http://www.w3.org/1999/xlink" version="1.1" x="0px" y="0px" viewBox="0 0 100 100" enable-background="new 0 0 100 100" xml:space="preserve"><g><g><path d="M49.893,34.701c-0.318,0.391-0.636,0.783-0.954,1.174c-0.219,0.27,0.648,0.391,0.772,0.375    c1.933-0.249,3.682-0.769,5.436-1.624c0.301-0.147-0.236-0.369-0.354-0.389c-1.752-0.301-3.31-0.227-5.015,0.312    c-0.359,0.113,0.388,0.406,0.486,0.412c1.718,0.101,3.248-0.13,4.839-0.8c0.317-0.133-0.254-0.367-0.354-0.389    c-2.375-0.518-4.657,0.152-6.287,2.032c-2.327,2.683-1.949,6.431-0.793,9.527c0.076,0.204,0.971,0.434,0.969,0.166    c-0.018-2.919-0.036-5.837-0.054-8.756c-0.002-0.31-0.968-0.468-0.975-0.222c-0.135,4.444,0.068,8.859,0.603,13.272    c0.031,0.252,0.973,0.399,0.969,0.166c-0.011-0.676-0.021-1.352-0.032-2.029c-0.005-0.319-0.979-0.454-0.975-0.222    c0.011,0.676,0.021,1.352,0.032,2.029c0.323,0.055,0.646,0.111,0.97,0.166c-0.531-4.376-0.726-8.755-0.592-13.161    c-0.325-0.074-0.65-0.148-0.975-0.222c0.018,2.919,0.036,5.837,0.054,8.756c0.323,0.055,0.646,0.111,0.969,0.166    c-0.89-2.384-1.38-5.134-0.329-7.558c0.463-1.068,1.147-2.005,2.083-2.704c0.759-0.566,1.416-0.735,2.313-0.96    c1.126-0.213,1.188-0.199,0.187,0.044c-0.901,0.297-1.833,0.385-2.796,0.264c0.162,0.137,0.324,0.274,0.485,0.412    c0.772-0.244,4.66-0.874,1.937,0.101c-1.123,0.402-2.251,0.629-3.427,0.78c0.257,0.125,0.515,0.25,0.772,0.375    c0.318-0.391,0.636-0.783,0.954-1.174C50.997,34.787,50.073,34.479,49.893,34.701L49.893,34.701z"></path></g></g><g><g><path d="M46.54,37.186c0.451,9.119,2.238,18.108,2.689,27.226c0.013,0.271,1.009,0.191,0.995-0.104    c-0.451-9.119-2.238-18.108-2.689-27.226C47.521,36.812,46.525,36.891,46.54,37.186L46.54,37.186z"></path></g></g><g><g><g><path d="M51.572,22.15c-0.909,2.712-0.131,5.431,2.014,7.301c0.142,0.124,0.807,0.26,0.915,0.022     c0.9-1.977,3.802-10.974-0.488-11.191c-2.118-0.107-2.512,3.016-2.688,4.543c-0.194,1.683-0.377,4.34,1.706,4.849     c1.311,0.32,2.766-0.422,3.335-1.616c0.679-1.425,0.276-5.033-1.165-6.075c-0.862-0.623-1.868-0.377-2.583,0.317     c-1.679,1.63-1.364,4.421-0.074,6.135c0.153,0.203,0.793,0.302,0.961,0.073c1.01-1.369,1.558-2.759,1.747-4.456     c0.036-0.318-0.833-0.266-0.975-0.128c-0.95,0.925-1.441,1.88-1.662,3.17c-0.044,0.26,0.946,0.374,0.997,0.076     c0.217-1.27,0.717-2.19,1.618-3.067c-0.325-0.043-0.65-0.085-0.975-0.128c-0.182,1.628-0.726,3.027-1.704,4.352     c0.32,0.024,0.641,0.049,0.961,0.073c-0.716-0.952-1.136-2.058-1.042-3.271c0.05-0.643,0.275-1.739,0.731-2.183     c0.413-0.403,1.079-0.704,1.655-0.141c0.742,0.725,0.881,2.72,0.815,3.739c-0.036,0.566-0.228,1.804-0.811,2.127     c-0.78-0.063-1.56-0.127-2.341-0.19c-0.181-0.542-0.272-1.095-0.271-1.658c-0.078-1.266,0.09-2.598,0.44-3.814     c0.226-0.784,0.516-2.651,1.959-1.662c0.427,0.293,0.409,1.331,0.455,1.777c0.287,2.784-0.412,5.651-1.558,8.168     c0.305,0.007,0.61,0.015,0.915,0.022c-2.081-1.814-2.764-4.491-1.893-7.089C52.642,22.01,51.675,21.843,51.572,22.15     L51.572,22.15z"></path></g></g><g><g><path d="M48.003,38.312c-0.814,7.618,0.353,15.52,0.881,23.132c0.549,7.92,1.104,15.839,1.639,23.76     c0.02,0.291,0.977,0.382,0.995,0.104c0.433-6.697,0.504-13.418,1.455-20.072c0.039-0.271-0.928-0.392-0.995-0.104     c-0.76,3.301-0.923,6.699-1.683,10c0.332,0.035,0.663,0.07,0.995,0.104c1.187-7.051,2.374-14.103,3.56-21.154     c-0.332-0.035-0.663-0.07-0.995-0.104c0.136,2.209,0.526,4.292,1.193,6.401c0.072,0.229,1.003,0.301,0.982,0.05     c-0.097-1.189-0.193-2.379-0.29-3.568c-0.332-0.035-0.663-0.07-0.995-0.104c1.412,9.468,2.755,18.946,4.167,28.413     c0.044,0.292,1.002,0.371,0.995,0.104c-0.314-10.885-0.64-21.769-0.953-32.654c-0.332-0.035-0.663-0.07-0.995-0.104     c0.21,2.74,0.022,5.399-0.571,8.081c0.332,0.035,0.663,0.07,0.995,0.104c0.828-5.423,1.478-10.87,1.914-16.338     c0.218-2.734,0.385-5.471,0.501-8.211c0.074-1.731,0.751-4.65-0.122-6.261c-1.02-1.884-4.193-1.469-5.888-1.067     c-3.381,0.802-6.074,3.163-7.391,6.36c-0.098,0.238,0.831,0.326,0.971,0.155c1.328-1.621,2.873-2.793,4.791-3.636     c-0.298-0.083-0.595-0.166-0.893-0.249c-2.455,2.02-3.688,4.777-3.557,7.952c0.013,0.31,0.879,0.359,0.995,0.104     c1.433-3.163,3.488-5.812,6.175-8.005c-0.316-0.069-0.632-0.138-0.948-0.206c-2.552,3.644-4.559,7.549-6.042,11.742     c-0.082,0.232,0.849,0.364,0.971,0.155c2.02-3.458,4.04-6.916,6.059-10.373c-0.324-0.052-0.647-0.104-0.971-0.155     c-0.668,3.101-1.335,6.202-2.003,9.303c-0.057,0.263,0.893,0.381,0.995,0.104c1.199-3.28,2.21-6.607,3.038-9.999     c-0.332-0.035-0.663-0.07-0.995-0.104c-0.487-0.229-0.426-0.629,0.182-1.202c-0.305-0.016-0.609-0.032-0.914-0.048     c4.077,3.827,2.401,9.514,0.772,14.091c0.332,0.035,0.663,0.07,0.995,0.104c0.599-4.947,1.199-9.894,1.798-14.841     c-0.332-0.035-0.663-0.07-0.995-0.104c0.98,7.742,0.81,15.507-0.508,23.198c0.332,0.035,0.663,0.07,0.995,0.104     c0.038-5.496,0.075-10.991,0.113-16.487c0.002-0.288-0.959-0.386-0.995-0.104c-0.507,4.014-0.72,8.032-0.639,12.077     c0.006,0.293,0.978,0.379,0.995,0.104c0.234-3.931,0.094-7.825-0.421-11.729c-0.039-0.299-0.886-0.378-0.995-0.104     c-1.653,4.149-2.409,8.424-2.279,12.887c0.332,0.035,0.663,0.07,0.995,0.104c-0.199-3.646-0.398-7.291-0.597-10.937     c-0.016-0.294-0.907-0.381-0.995-0.104c-1.619,5.113-2.907,10.306-3.864,15.583c0.332,0.035,0.663,0.07,0.995,0.104     c0.392-4.261,0.784-8.521,1.176-12.782c-0.332-0.035-0.663-0.07-0.995-0.104c-0.496,7.272-0.993,14.544-1.489,21.816     c0.332,0.035,0.663,0.07,0.995,0.104c-0.011-4.304,0.484-8.522,1.493-12.707c-0.332-0.035-0.663-0.07-0.995-0.104     c-0.101,6.539,0.155,12.989-1.418,19.394c0.332,0.035,0.663,0.07,0.995,0.104c1.14-6.927,1.661-13.93,3.431-20.744     c-0.332-0.035-0.663-0.07-0.995-0.104c-0.937,6.62-1.873,13.24-2.81,19.86c-0.038,0.271,0.939,0.393,0.995,0.104     c1.515-7.877,3.031-15.755,4.546-23.632c-0.332-0.035-0.663-0.07-0.995-0.104c0.245,3.641,0.49,7.283,0.736,10.924     c0.019,0.287,0.958,0.389,0.995,0.104c0.41-3.231,0.439-6.426,0.088-9.664c-0.033-0.305-1.011-0.356-0.995-0.104     c0.556,8.387,1.112,16.774,1.667,25.161c0.021,0.31,1.011,0.353,0.995,0.104c-0.556-8.387-1.112-16.774-1.667-25.161     c-0.332-0.035-0.663-0.07-0.995-0.104c0.35,3.238,0.321,6.433-0.088,9.664c0.332,0.035,0.663,0.07,0.995,0.104     c-0.245-3.641-0.49-7.283-0.736-10.924c-0.019-0.286-0.939-0.391-0.995-0.104c-1.515,7.877-3.031,15.755-4.546,23.632     c0.332,0.035,0.663,0.07,0.995,0.104c0.937-6.62,1.873-13.24,2.81-19.86c0.039-0.273-0.921-0.389-0.995-0.104     c-1.771,6.814-2.291,13.817-3.431,20.744c-0.044,0.267,0.924,0.393,0.995,0.104c1.573-6.404,1.317-12.856,1.418-19.394     c0.004-0.288-0.927-0.385-0.995-0.104c-1.009,4.184-1.505,8.403-1.493,12.707c0.001,0.292,0.976,0.38,0.995,0.104     c0.496-7.272,0.993-14.544,1.489-21.816c0.02-0.286-0.969-0.385-0.995-0.104c-0.392,4.261-0.784,8.521-1.176,12.782     c-0.026,0.279,0.943,0.39,0.995,0.104c0.957-5.277,2.245-10.47,3.864-15.583c-0.332-0.035-0.663-0.07-0.995-0.104     c0.199,3.646,0.398,7.291,0.597,10.937c0.017,0.304,1.002,0.363,0.995,0.104c-0.129-4.464,0.627-8.739,2.279-12.887     c-0.332-0.035-0.663-0.07-0.995-0.104c0.515,3.904,0.655,7.798,0.421,11.729c0.332,0.035,0.663,0.07,0.995,0.104     c-0.081-4.045,0.132-8.063,0.639-12.077c-0.332-0.035-0.663-0.07-0.995-0.104c-0.038,5.496-0.075,10.991-0.113,16.487     c-0.002,0.287,0.946,0.387,0.995,0.104c1.318-7.691,1.488-15.457,0.508-23.198c-0.036-0.282-0.96-0.393-0.995-0.104     c-0.599,4.947-1.199,9.894-1.798,14.841c-0.034,0.284,0.899,0.374,0.995,0.104c1.677-4.712,3.278-10.395-0.887-14.306     c-0.14-0.131-0.795-0.28-0.914-0.048c-1.257,2.461,1.656,2.69,1.761,1.513c0.025-0.281-0.926-0.386-0.995-0.104     c-0.829,3.393-1.84,6.719-3.038,9.999c0.332,0.035,0.663,0.07,0.995,0.104c0.668-3.101,1.335-6.202,2.003-9.303     c0.057-0.263-0.855-0.354-0.971-0.155c-2.02,3.458-4.04,6.916-6.059,10.373c0.324,0.052,0.647,0.104,0.971,0.155     c1.471-4.161,3.464-8.027,5.995-11.64c0.193-0.275-0.772-0.35-0.948-0.206c-2.724,2.224-4.772,4.907-6.222,8.107     c0.332,0.035,0.663,0.07,0.995,0.104c-0.129-3.126,1.095-5.863,3.51-7.85c0.231-0.19-0.747-0.313-0.893-0.249     c-1.967,0.864-3.541,2.059-4.902,3.72c0.324,0.052,0.647,0.104,0.971,0.155c1.286-3.123,3.997-5.512,7.355-6.154     c1.573-0.301,3.495-0.475,4.078,1.342c0.223,0.696,0.113,1.467,0.097,2.185c-0.044,1.935-0.131,3.87-0.234,5.802     c-0.395,7.412-1.18,14.795-2.3,22.132c-0.041,0.269,0.931,0.393,0.995,0.104c0.594-2.683,0.781-5.342,0.571-8.081     c-0.023-0.302-1.002-0.364-0.995-0.104c0.314,10.885,0.64,21.769,0.953,32.654c0.332,0.035,0.663,0.07,0.995,0.104     c-1.412-9.468-2.755-18.946-4.167-28.413c-0.045-0.302-1.015-0.355-0.995-0.104c0.097,1.189,0.193,2.379,0.29,3.568     c0.327,0.017,0.655,0.033,0.982,0.05c-0.652-2.062-1.035-4.134-1.168-6.291c-0.018-0.286-0.946-0.39-0.995-0.104     c-1.187,7.051-2.374,14.103-3.56,21.154c-0.045,0.266,0.928,0.394,0.995,0.104c0.76-3.301,0.923-6.699,1.683-10     c-0.332-0.035-0.663-0.07-0.995-0.104c-0.951,6.653-1.022,13.375-1.455,20.072c0.332,0.035,0.663,0.07,0.995,0.104     c-0.535-7.921-1.09-15.84-1.639-23.76c-0.528-7.612-1.694-15.514-0.881-23.132C49.028,38.136,48.033,38.028,48.003,38.312     L48.003,38.312z"></path></g></g><g><g><path d="M59.167,32.055c0.335,0.787,0.671,1.573,1.006,2.36c0.119,0.278,1.072,0.147,0.996-0.089     c-0.405-1.261-0.811-2.521-1.216-3.782c-0.094-0.293-1.063-0.151-0.996,0.089c0.476,1.714,0.952,3.428,1.428,5.142     c0.077,0.277,1.019,0.195,0.996-0.089c-0.124-1.507-0.411-2.904-0.884-4.338c-0.332,0.03-0.664,0.06-0.996,0.089     c1.272,2.918,2.543,5.837,3.815,8.755c0.324-0.047,0.649-0.094,0.973-0.141c-1.452-3.265-2.587-6.693-3.494-10.147     c-0.073-0.278-1.013-0.197-0.996,0.089c0.241,4.119,2.521,7.657,3.665,11.531c0.651,2.204,0.721,4.214-0.126,6.369     c-0.292,0.742-0.702,1.217,0.331,1.392c0.186,0.032,0.607,0.013,0.721-0.185c0.07-0.121,0.139-0.241,0.209-0.362     c0.021-0.037,0.017-0.073-0.01-0.106c-0.086-0.118-0.172-0.236-0.259-0.354c-0.149-0.204-0.852-0.142-0.96,0.086     c-0.548,1.152-1.095,2.303-1.643,3.455c0.323,0.007,0.647,0.013,0.97,0.02c2.733-6.048,2.096-12.845-1.305-18.49     c-0.141-0.234-1.101-0.081-0.951,0.192c0.611,1.117,0.891,2.077,0.98,3.325c0.324-0.047,0.649-0.094,0.973-0.141     c-0.558-1.012-1.029-2.063-1.587-3.075c-0.317,0.064-0.634,0.128-0.951,0.192c2.58,3.018,4.04,6.734,4.058,10.723     c0.017,3.844-2.066,6.865-2.552,10.536c-0.036,0.27,0.755,0.122,0.863,0.064c0.963-0.516,0.966-1.609-0.012-2.142     c-0.203-0.111-0.59-0.09-0.786,0.03c-1.433,0.881,1.007,2.232,1.865,0.802c1.269-2.114-2.523-2.099-1.772-0.668     c0.119,0.226,0.86,0.12,0.96-0.086c3.238-6.646,2.673-14.299-1.041-20.629c-0.141-0.241-1.105-0.071-0.951,0.192     c3.676,6.265,4.227,13.839,1.022,20.417c0.32-0.029,0.64-0.058,0.96-0.086c0.061-0.17,0.123-0.34,0.184-0.511     c-0.247-0.018-0.495-0.036-0.742-0.053c0.361,0.293,0.026,2.278-0.418,2.516c0.288,0.021,0.575,0.043,0.863,0.064     c0.3-2.269,1.489-4.225,2.05-6.421c0.406-1.588,0.562-3.228,0.481-4.864c-0.186-3.766-1.644-7.225-4.083-10.077     c-0.164-0.192-1.11-0.096-0.951,0.192c0.558,1.012,1.029,2.063,1.587,3.075c0.114,0.206,0.993,0.135,0.973-0.141     c-0.09-1.258-0.424-2.327-1.026-3.427c-0.317,0.064-0.634,0.128-0.951,0.192c3.363,5.582,3.99,12.296,1.286,18.279     c-0.118,0.262,0.846,0.28,0.97,0.02c0.548-1.152,1.095-2.303,1.643-3.455c-0.32,0.029-0.64,0.058-0.96,0.086     c0.013,0.203,0.027,0.406,0.04,0.609c0.24-0.062,0.481-0.123,0.721-0.185c0.337,0.057,0.88-3.98,0.86-4.496     c-0.065-1.73-0.637-3.385-1.265-4.978c-1.211-3.072-2.744-6.172-2.94-9.518c-0.332,0.03-0.664,0.06-0.996,0.089     c0.917,3.494,2.071,6.948,3.539,10.25c0.111,0.249,1.057,0.05,0.973-0.141c-1.272-2.918-2.543-5.837-3.815-8.755     c-0.121-0.277-1.073-0.145-0.996,0.089c0.473,1.436,0.76,2.834,0.884,4.338c0.332-0.03,0.664-0.06,0.996-0.089     c-0.476-1.714-0.952-3.428-1.428-5.142c-0.332,0.03-0.664,0.06-0.996,0.089c0.405,1.261,0.811,2.521,1.216,3.782     c0.332-0.03,0.664-0.06,0.996-0.089c-0.335-0.787-0.671-1.573-1.006-2.36C60.035,31.665,59.083,31.859,59.167,32.055     L59.167,32.055z"></path></g></g><g><g><path d="M48.367,35.399c0.062-0.095,0.123-0.191,0.185-0.286c0.038-0.058-0.066-0.154-0.093-0.181     c-0.184-0.102-0.178-0.225,0.019-0.369c-0.316-0.089-0.631-0.178-0.947-0.267c0.076,2.58-1.483,4.584-3.222,6.332     c0.304,0.123,0.608,0.245,0.912,0.368c0.43-2.075,1.252-4.529,2.835-6.003c-0.304-0.123-0.608-0.245-0.912-0.368     c-1.373,1.987-2.105,4.511-2.579,6.857c0.315,0.108,0.631,0.216,0.946,0.323c0.076-1.043,0.249-1.578,0.986-2.443     c-0.304-0.123-0.608-0.245-0.912-0.368c-0.372,2.113-1.592,7.879-4.608,7.616c-1.331-0.116-3.078-1.62-4.158-2.389     c-1.351-0.962-2.552-2.042-3.701-3.236c-0.225,0.034-0.45,0.068-0.675,0.101c1.315,0.8,2.39,1.706,3.398,2.866     c0.294,0.029,0.588,0.059,0.882,0.088c-0.834-0.9-1.631-1.463-2.766-1.936c-0.135-0.056-0.953-0.188-0.568,0.159     c1.531,1.381,3.168,2.6,4.973,3.603c1.193,0.662,2.85,1.723,4.248,1.837c0.851,0.069,1.207-0.111,1.667-0.81     c1.259-1.915,1.794-4.942,2.572-7.114c0.094-0.263-0.849-0.595-0.946-0.323c-0.446,1.245-0.892,2.49-1.338,3.735     c-0.42,1.172-0.709,3.149-1.892,3.652c-1.346,0.572-3.622-1.033-4.767-1.748c-0.653-0.407-1.295-0.843-1.907-1.309     c-0.624-0.475-2.486-2.344-0.157,0.167c0.168,0.182,1.116,0.357,0.882,0.088c-1.085-1.249-2.279-2.259-3.691-3.118     c-0.158-0.096-1.05-0.289-0.675,0.101c2.814,2.926,6.122,5.081,9.905,6.537c0.094,0.036,0.415,0.127,0.504,0.017     c1.972-2.449,3.218-5.158,3.765-8.26c0.047-0.268-0.751-0.558-0.912-0.368c-0.673,0.791-0.977,1.475-1.054,2.533     c-0.021,0.294,0.893,0.586,0.946,0.323c0.474-2.346,1.206-4.87,2.579-6.857c0.139-0.201-0.738-0.53-0.912-0.368     c-1.632,1.518-2.463,3.963-2.904,6.092c-0.057,0.276,0.741,0.54,0.912,0.368c1.793-1.802,3.368-3.878,3.291-6.533     c-0.008-0.263-0.802-0.49-0.947-0.267c-0.062,0.095-0.123,0.191-0.185,0.286c-0.038,0.058,0.066,0.154,0.093,0.181     c0.184,0.102,0.178,0.225-0.019,0.369C47.297,35.268,48.192,35.671,48.367,35.399L48.367,35.399z"></path></g></g><g><g><path d="M32.853,41.558c-0.711-0.947-2.238-1.295-3.2-0.536c-0.12,0.095,0.079,0.246,0.15,0.285     c0.588,0.325,1.242,0.515,1.917,0.391c0.494-0.091,1.259-0.34,0.866-0.942c-0.447-0.685-2.042-0.965-2.363-0.042     c-0.035,0.102,0.117,0.2,0.183,0.24c0.48,0.292,1.158,0.416,1.511-0.134c0.367-0.57-0.093-1.05-0.673-1.152     c-0.557-0.097-1.005,0.202-1.02,0.795c-0.016,0.599,0.477,0.904,1.014,0.996c0.125,0.021,0.412,0.068,0.408-0.127     c-0.027-1.222-2.745-1.494-2.651-0.117c0.012,0.178,0.422,0.302,0.543,0.321c1.246,0.199,2.503,0.153,3.701-0.271     c0.589-0.208,0.926-0.25,0.96-0.91c0.029-0.565-0.149-1.067-0.436-1.543c-0.116-0.193-0.771-0.437-0.918-0.189     c-0.512,0.862-1.023,1.724-1.535,2.586c-0.119,0.2,0.788,0.582,0.952,0.306c0.512-0.862,1.023-1.724,1.535-2.586     c-0.306-0.063-0.612-0.126-0.918-0.189c0.221,0.367,0.425,0.867,0.368,1.309c-0.071,0.547-0.572,0.706-1.04,0.849     c-0.913,0.279-1.862,0.34-2.804,0.189c0.181,0.107,0.362,0.214,0.543,0.321c-0.032-0.467,0.735-0.921,0.75-0.271     c0.136-0.042,0.272-0.085,0.408-0.127c0.174,0.03-0.03-0.932,0.456-0.868c-0.189-0.072-0.378-0.144-0.567-0.215     c0.214,0.169-0.005,0.403-0.021,0.556c-0.032,0.294-0.41,0.033,0.022,0.296c0.061,0.08,0.122,0.16,0.183,0.24     c0.059-0.169,0.445-0.661,0.579-0.212c0.144,0.481-1.225,0.403-1.365,0.325c0.05,0.095,0.1,0.19,0.15,0.285     c0.466-0.367,1.042-0.451,1.431,0.067C32.128,41.698,33.072,41.85,32.853,41.558L32.853,41.558z"></path></g></g></g><g><g><g><g><path d="M31.867,30.173c-0.15-0.055-0.111-0.441,0.054-0.458c-0.075-0.069-0.15-0.138-0.225-0.208      c-0.485,0.072-0.975,0.483-0.824,1.03c0.124,0.45,0.701,0.608,1.113,0.55c0.469-0.066,0.8-0.492,0.498-0.932      c-0.251-0.367-0.786-0.489-1.177-0.3c-0.161,0.078,0.291,0.221,0.413,0.163c0.494-0.239,0.536,1.343-0.22,0.782      c-0.429-0.318,0.014-1.024,0.422-1.086c0.323-0.048-0.075-0.222-0.225-0.208c-0.478,0.048-0.561,0.633-0.104,0.8      C31.735,30.359,32.168,30.283,31.867,30.173L31.867,30.173z"></path></g></g><g><g><path d="M31.454,30.018c0.214,0,0.454-0.206,0.112-0.206C31.352,29.812,31.112,30.018,31.454,30.018L31.454,30.018z"></path></g></g><g><g><path d="M31.428,29.138c0.005-0.062,0.011-0.123,0.016-0.185c0.013-0.017,0.015-0.034,0.005-0.053      c-0.148-0.196-0.296-0.391-0.444-0.587c-0.056-0.074-0.521-0.157-0.491-0.018c0.107,0.513,0.214,1.026,0.322,1.539      c0.164,0.006,0.328,0.012,0.491,0.018c-0.548-1.001-1.097-2.002-1.645-3.003c-0.277-0.505-0.548-1.521-1.144-1.74      c-0.88-0.324-1.492,1.308-1.821,1.817c-0.459,0.71-2.192,2.579-1.037,3.269c0.488,0.291,1.339,0.226,1.892,0.303      c0.627,0.087,1.273,0.23,1.904,0.266c1.166,0.066-0.23,0.069-0.51,0.104c-0.304,0.038,0.041,0.2,0.175,0.2      c0.878-0.005,1.756-0.009,2.635-0.014c0.34-0.002,0.1-0.205-0.115-0.204c-0.546,0.003-1.223-0.1-1.756,0.009      c-1.08,0.22,0.371,0.071,0.65,0.036c0.272-0.034,0.021-0.179-0.109-0.197c-0.635-0.089-1.27-0.177-1.904-0.266      c-0.577-0.08-1.364-0.055-1.904-0.266c-1.408-0.548-0.705-1.121-0.192-1.957c0.285-0.465,0.577-0.925,0.874-1.382      c0.12-0.184,0.731-1.352,0.912-1.357c0.403-0.011,0.669,0.846,0.856,1.188c0.585,1.068,1.17,2.135,1.755,3.203      c0.054,0.098,0.517,0.142,0.491,0.018c-0.107-0.513-0.214-1.026-0.322-1.539c-0.164-0.006-0.328-0.012-0.491-0.018      c0.252,0.333,0.253,0.816,0.641,0.965C31.306,29.343,31.728,29.254,31.428,29.138L31.428,29.138z"></path></g></g><g><g><path d="M31.705,29.923c0.099-0.873,0.235-1.737,0.431-2.594c0.128-0.56,0.434-2.921,1.496-2.328      c0.12-0.04,0.241-0.081,0.361-0.121c-0.037-0.02-0.073-0.04-0.11-0.06c-0.105-0.057-0.329-0.073-0.42,0.021      c-0.035,0.037-0.071,0.073-0.106,0.11c-0.013,0.017-0.014,0.035-0.003,0.053c0.416,0.98,2.121,0.663,1.002,1.996      c-0.874,1.041-1.748,2.082-2.622,3.124c-0.082,0.098,0.381,0.196,0.478,0.08c1.104-1.315,2.208-2.63,3.312-3.946      c0.022-0.026,0.003-0.063-0.021-0.078c-0.186-0.121-1.773-1.041-1.562-1.258c-0.14,0.007-0.28,0.014-0.42,0.021      c0.037,0.02,0.073,0.04,0.11,0.06c0.113,0.061,0.59,0.006,0.361-0.121c-0.409-0.228-1.211-0.478-1.618-0.103      c-0.158,0.146-0.318,0.949-0.379,1.154c-0.116,0.388-0.22,0.779-0.314,1.173c-0.219,0.92-0.369,1.851-0.476,2.791      C31.19,30.03,31.688,30.07,31.705,29.923L31.705,29.923z"></path></g></g><g><g><path d="M32.264,30.34c1.424-0.176,2.823-0.132,4.232,0.142c-0.091-0.053-0.181-0.106-0.272-0.16      c0.008,0.491,0.021,0.982,0.024,1.474c0.002,0.356,0.134,0.806-0.352,0.843c-0.284,0.022-0.766-0.389-0.996-0.515      c-1.022-0.561-1.991-1.203-2.92-1.908c-0.1-0.076-0.582-0.126-0.38,0.028c0.687,0.521,1.393,1.013,2.13,1.461      c0.663,0.403,1.455,0.95,2.212,1.168c1.274,0.366,0.767-1.748,0.756-2.456c-0.001-0.089-0.216-0.149-0.272-0.16      c-1.482-0.289-2.958-0.346-4.458-0.16C31.712,30.13,32.134,30.356,32.264,30.34L32.264,30.34z"></path></g></g><g><g><path d="M31.419,31.414c0.086,0.492,0.172,0.984,0.258,1.476c0.024,0.139,0.493,0.066,0.494-0.079      c0.001-0.444,0.002-0.888,0.003-1.333c0-0.124-0.493-0.077-0.494,0.079c-0.004,1.396-0.008,2.793-0.012,4.189      c0.151-0.041,0.301-0.082,0.452-0.124c-0.578-0.278-1.99-0.857-2.158-1.583c-0.139-0.598,1.245-2.162,1.551-2.659      c0.327-0.53,0.503-1.142-0.313-0.854c-0.05,0.018-0.102,0.049-0.109,0.105c-0.005,0.037-0.009,0.074-0.014,0.111      c-0.017,0.137,0.419,0.031,0.468-0.024c0.121-0.135,0.241-0.27,0.362-0.405c0.125-0.139-0.352-0.132-0.442-0.031      c-0.121,0.135-0.241,0.27-0.362,0.405c0.156-0.008,0.312-0.016,0.468-0.024c-0.019,0.147-0.666,0.931-0.771,1.094      c-0.19,0.294-0.381,0.588-0.571,0.882c-0.223,0.345-0.862,0.999-0.761,1.479c0.154,0.729,1.658,1.391,2.242,1.672      c0.094,0.045,0.452,0.029,0.452-0.124c0.004-1.396,0.008-2.793,0.012-4.189c-0.165,0.026-0.329,0.053-0.494,0.079      c-0.001,0.444-0.002,0.888-0.003,1.333c0.165-0.026,0.329-0.053,0.494-0.079c-0.086-0.492-0.172-0.984-0.258-1.476      C31.888,31.195,31.395,31.275,31.419,31.414L31.419,31.414z"></path></g></g><g><g><path d="M31.968,32.626c-0.305-0.672-0.316-1.374-0.042-2.056c0.045-0.112-0.431-0.244-0.49-0.098      c-0.282,0.701-0.263,1.424,0.049,2.112C31.546,32.718,32.023,32.746,31.968,32.626L31.968,32.626z"></path></g></g><g><g><path d="M31.563,30.872c-0.072,0.637-0.739,3.368-0.376,3.524c0.374,0.16,0.473-2.22,0.6-2.513      c-0.422,0.97-0.22,3.477-0.306,4.776c-0.098,1.478-0.195,2.957-0.293,4.435c-0.038,0.568-0.269,3.589,0.3,2.153      c0.464-1.173,0.169-3.089,0.275-4.377c0.24-2.916,0.605-5.816,1.058-8.706c0.024-0.154-0.453-0.286-0.472-0.164      c-0.755,4.823-1.217,9.666-1.388,14.544c-0.006,0.158,0.465,0.278,0.472,0.164c0.29-4.39,1.229-9.293,0.635-13.668      c-0.015-0.113-0.439-0.269-0.473-0.136c-0.358,1.412-0.623,2.82-0.803,4.265c-0.018,0.146,0.44,0.296,0.472,0.164      c0.352-1.424,0.606-2.841,0.771-4.297C32.053,30.879,31.576,30.754,31.563,30.872L31.563,30.872z"></path></g></g><g><g><path d="M32.96,30.429c0.293,0,0.301-0.2,0.002-0.2C32.669,30.229,32.661,30.429,32.96,30.429L32.96,30.429z"></path></g></g><g><g><path d="M35.452,24.748c0.662,0.667,0.936,1.572,0.766,2.494c-0.02,0.107,0.468,0.112,0.498-0.049      c0.174-0.94-0.117-1.867-0.789-2.545C35.821,24.541,35.364,24.659,35.452,24.748L35.452,24.748z"></path></g></g><g><g><path d="M34.994,23.004c1.99,0.708,2.954,3.032,2.246,4.973c-0.044,0.121,0.435,0.257,0.487,0.113      c0.784-2.151-0.444-4.491-2.56-5.244C34.965,22.775,34.672,22.89,34.994,23.004L34.994,23.004z"></path></g></g></g><g><g><path d="M25.574,33.493c0.209,1.759,1.614,2.998,3.314,3.294c0.106,0.019,0.508,0.065,0.526-0.114     c0.018-0.181-0.347-0.261-0.46-0.281c-1.299-0.227-2.244-1.467-2.395-2.733C26.521,33.337,25.548,33.273,25.574,33.493     L25.574,33.493z"></path></g></g><g><g><path d="M24.26,32.586c-0.916,2.69,0.742,5.591,3.412,6.396c0.288,0.087,1.154-0.1,0.541-0.285     c-2.491-0.751-3.781-3.584-2.96-5.996C25.329,32.478,24.363,32.284,24.26,32.586L24.26,32.586z"></path></g></g></g></svg>